HIERARCHY
ROOT Hips
{
	OFFSET 0.00000 0.00000 0.00000
	CHANNELS 6 Xposition Yposition Zposition Zrotation Yrotation Xrotation 
	JOINT LHipJoint
	{
		OFFSET 0 0 0
		CHANNELS 3 Zrotation Yrotation Xrotation
		JOINT LeftHip
		{
			OFFSET 1.85742 -1.74412 1.01653
			CHANNELS 3 Zrotation Yrotation Xrotation
			JOINT LeftKnee
			{
				OFFSET 2.54803 -7.00067 0.00000
				CHANNELS 3 Zrotation Yrotation Xrotation
				JOINT LeftAnkle
				{
					OFFSET 2.51202 -6.90173 0.00000
					CHANNELS 3 Zrotation Yrotation Xrotation
					JOINT LeftToe
					{
						OFFSET 0.17547 -0.48209 1.64281
						CHANNELS 3 Zrotation Yrotation Xrotation
						End Site
						{
							OFFSET 0.00000 -0.00000 0.86587
						}
					}
				}
			}
		}
	}
	JOINT RHipJoint
	{
		OFFSET 0 0 0
		CHANNELS 3 Zrotation Yrotation Xrotation
		JOINT RightHip
		{
			OFFSET -1.95533 -1.74413 1.01654
			CHANNELS 3 Zrotation Yrotation Xrotation
			JOINT RightKnee
			{
				OFFSET -2.49465 -6.85400 0.00000
				CHANNELS 3 Zrotation Yrotation Xrotation
				JOINT RightAnkle
				{
					OFFSET -2.54783 -7.00010 0.00000
					CHANNELS 3 Zrotation Yrotation Xrotation
					JOINT RightToe
					{
						OFFSET -0.18513 -0.50864 1.69288
						CHANNELS 3 Zrotation Yrotation Xrotation
						End Site
						{
							OFFSET -0.00000 -0.00000 0.89242
						}
					}
				}
			}
		}
	}
	JOINT lowerback
	{
		OFFSET 0 0 0
		CHANNELS 3 Zrotation Yrotation Xrotation
		JOINT Chest
		{
			OFFSET 0.02173 2.16290 -0.15998
			CHANNELS 3 Zrotation Yrotation Xrotation
			JOINT Chest2
			{
				OFFSET 0.00940 2.17323 -0.00467
				CHANNELS 3 Zrotation Yrotation Xrotation
				JOINT lowerneck
				{
					OFFSET 0 0 0
					CHANNELS 3 Zrotation Yrotation Xrotation
					JOINT Neck
					{
						OFFSET 0.01475 1.85823 0.31113
						CHANNELS 3 Zrotation Yrotation Xrotation
						JOINT Head
						{
							OFFSET 0.01902 1.88783 -0.37187
							CHANNELS 3 Zrotation Yrotation Xrotation
							End Site
							{
								OFFSET 0.00489 1.93211 -0.16169
							}
						}
					}
				}
				JOINT LeftCollar
				{
					OFFSET 0 0 0
					CHANNELS 3 Zrotation Yrotation Xrotation
					JOINT LeftShoulder
					{
						OFFSET 3.34199 1.32384 -0.07862
CHANNELS 3 Zrotation Xrotation Yrotation
						JOINT LeftElbow
						{
OFFSET 0 -5.279500 0.000000
CHANNELS 3 Zrotation Xrotation Yrotation
							JOINT LeftWrist
							{
OFFSET 0 -3.535040 0.000000
CHANNELS 3 Zrotation Xrotation Yrotation
								JOINT lhand
								{
									OFFSET 0 0 0
CHANNELS 3 Zrotation Xrotation Yrotation
									JOINT LFingers
									{
OFFSET 0 -0.667950 0.000000
CHANNELS 3 Zrotation Xrotation Yrotation
										End Site
										{
OFFSET 0 -0.538520 0.000000
										}
									}
								}
								JOINT LThumb
								{
OFFSET 0 0.000000 0.000000
CHANNELS 3 Zrotation Xrotation Yrotation
									End Site
									{
OFFSET 0 -0.546740 0.546740
									}
								}
							}
						}
					}
				}
				JOINT RightCollar
				{
					OFFSET 0 0 0
					CHANNELS 3 Zrotation Yrotation Xrotation
					JOINT RightShoulder
					{
						OFFSET -3.16149 1.45719 -0.50507
CHANNELS 3 Zrotation Xrotation Yrotation
						JOINT RightElbow
						{
OFFSET 0 -5.250350 0.000000
CHANNELS 3 Zrotation Xrotation Yrotation
							JOINT RightWrist
							{
OFFSET 0 -3.588840 0.000000
CHANNELS 3 Zrotation Xrotation Yrotation
								JOINT rhand
								{
									OFFSET 0 0 0
CHANNELS 3 Zrotation Xrotation Yrotation
									JOINT RFingers
									{
OFFSET 0 -0.779240 0.000000
CHANNELS 3 Zrotation Xrotation Yrotation
										End Site
										{
OFFSET 0 -0.628240 0.000000
										}
									}
								}
								JOINT RThumb
								{
OFFSET 0 0.000000 0.000000
CHANNELS 3 Zrotation Xrotation Yrotation
									End Site
									{
OFFSET 0 -0.637830 0.637830
									}
								}
							}
						}
					}
				}
			}
		}
	}
}
MOTION
Frames: 11
Frame Time: 0.008333333333333333
3.261100 17.425500 -3.725900 -56.049100 87.235400 -50.365600 0.000000 0.000000 0.000000 -15.325100 -28.789900 -4.363300 2.320500 9.504000 27.384900 0.387900 20.109800 -31.134100 1.280000 -7.169800 -20.219300 0.000000 0.000000 0.000000 20.764300 22.361800 -2.942100 -1.254100 -7.099700 20.011100 1.691600 -25.891400 -24.230700 -0.305100 3.551200 -9.817300 0.873500 1.484900 -0.442900 1.035400 2.049400 -2.757600 0.535100 1.032200 -2.587700 1.825600 1.937100 -16.448500 4.555800 1.550600 11.577500 1.320800 1.235400 6.191100 -0.000000 -0.000000 0.000000 5.434000 6.743700 -25.956000 11.754000 -19.434700 2.019700 34.612600 7.575600 -52.651100 0.000000 0.000000 0.000000 -7.125000 0.000000 0.000000 -64.654100 85.162200 60.190900 -0.000000 -0.000000 0.000000 -7.008300 4.910900 12.152300 -7.250400 -12.330600 -0.784200 -23.998700 -2.015900 -17.047400 0.000000 0.000000 0.000000 7.125000 0.000000 -0.000000 2.564900 11.439800 2.007300
3.262924 17.426724 -3.739105 -55.231873 87.199182 -49.572186 0.000000 0.000000 0.000000 -15.215260 -27.990544 -4.734955 2.328980 9.520016 27.435990 0.419328 19.518344 -30.615642 1.326884 -7.294460 -20.590894 0.000000 0.000000 0.000000 20.753217 22.375760 -2.840546 -1.243912 -7.071765 19.928139 1.726127 -26.005676 -24.150407 -0.317154 3.620093 -10.010325 0.853077 1.477693 -0.527907 0.969403 2.036939 -2.773718 0.481231 1.025676 -2.554695 1.848652 1.908925 -16.538809 4.460733 1.499822 12.038039 1.288512 1.213687 6.355360 0.000000 0.000000 0.000000 5.130718 6.263413 -28.548454 12.522835 -20.583760 2.282949 35.422362 7.000382 -53.515449 0.000000 0.000000 0.000000 -7.125000 0.000000 0.000000 -76.903647 85.513221 72.482109 0.000000 0.000000 0.000000 -6.759451 4.268194 11.938672 -7.504670 -12.746721 -0.839493 -22.868928 0.701198 -16.438408 0.000000 0.000000 0.000000 7.125000 0.000000 0.000000 3.269133 12.245517 2.505332
3.259554 17.425317 -3.751146 -53.558377 87.118364 -47.928772 0.000000 0.000000 0.000000 -15.208657 -27.772495 -4.817056 2.334921 9.531377 27.472004 0.486278 19.186770 -30.661999 1.174240 -6.877962 -19.354286 0.000000 0.000000 0.000000 20.743058 22.459152 -2.746598 -1.231677 -7.038343 19.828925 1.758929 -26.084504 -23.999045 -0.336720 3.728999 -10.315591 0.791953 1.455433 -0.545324 0.923294 2.006628 -2.826054 0.468256 1.011398 -2.599039 1.787376 1.912858 -16.600573 4.500853 1.494978 12.481543 1.317303 1.221703 6.507590 0.000000 0.000000 0.000000 4.581954 5.524138 -30.166773 13.060873 -21.376321 2.475512 35.283554 6.746784 -53.428343 0.000000 0.000000 0.000000 -7.125000 0.000000 0.000000 -75.464064 85.462859 71.017761 0.000000 0.000000 0.000000 -6.484191 3.446341 11.099078 -7.869806 -13.341480 -0.921934 -20.441843 4.919639 -17.016660 0.000000 0.000000 0.000000 7.125000 0.000000 0.000000 4.917296 11.943475 3.811336
3.249075 17.429591 -3.759539 -51.933031 87.029443 -46.290888 0.000000 0.000000 0.000000 -14.952131 -26.712995 -5.394350 2.339421 9.539977 27.499458 0.547027 18.296399 -30.018527 1.199313 -6.948268 -19.562349 0.000000 0.000000 0.000000 20.727046 22.582198 -2.703732 -1.215086 -6.992315 19.692672 1.771426 -26.108665 -23.925498 -0.332867 3.707953 -10.256358 0.674864 1.413188 -0.483896 0.904317 1.952339 -2.929536 0.511867 0.987095 -2.743349 1.729460 1.967536 -16.602763 4.575850 1.561581 12.761019 1.361452 1.263513 6.595942 0.000000 0.000000 0.000000 3.789167 4.598209 -31.307682 13.607862 -22.170075 2.679182 35.003471 7.065928 -53.195701 0.000000 0.000000 0.000000 -7.125000 0.000000 0.000000 -71.905272 85.359105 67.425787 0.000000 0.000000 0.000000 -6.205898 2.678739 11.290424 -8.431490 -14.249231 -1.056412 -17.768299 8.117358 -18.210515 0.000000 0.000000 0.000000 7.125000 0.000000 0.000000 6.742095 11.023678 5.366791
3.238837 17.428509 -3.777783 -50.124139 86.912054 -44.545702 0.000000 0.000000 0.000000 -14.872205 -25.954437 -5.676280 2.342200 9.545200 27.516043 0.551685 17.885416 -29.571127 1.231610 -7.036808 -19.824851 0.000000 0.000000 0.000000 20.726368 22.679190 -2.575170 -1.203045 -6.958796 19.593417 1.767431 -26.105788 -23.961006 -0.326777 3.674056 -10.161365 0.764267 1.414244 -0.388151 0.823164 1.956584 -3.026952 0.374355 0.985765 -2.891959 1.776953 1.919368 -16.625896 4.502936 1.484208 13.091080 1.326917 1.229234 6.708722 0.000000 0.000000 0.000000 3.305482 4.189145 -33.689102 14.909403 -24.017334 3.190385 34.268234 5.627509 -53.163510 0.000000 0.000000 0.000000 -7.125000 0.000000 0.000000 -70.099010 85.040529 65.352092 0.000000 0.000000 0.000000 -5.870414 2.375690 15.779451 -9.550036 -16.031328 -1.349245 -17.616867 4.645358 -18.389199 0.000000 0.000000 0.000000 7.125000 0.000000 0.000000 6.849325 10.857552 5.476888
3.234123 17.427891 -3.785259 -46.006486 86.719325 -40.516344 0.000000 0.000000 0.000000 -14.922029 -25.530438 -5.683930 2.336250 9.533871 27.480191 0.535472 17.878382 -29.450275 1.306772 -7.240992 -20.431450 0.000000 0.000000 0.000000 20.721534 22.959669 -2.447548 -1.206762 -6.969243 19.624365 1.790338 -26.161206 -23.855049 -0.327721 3.679287 -10.176065 0.687941 1.464627 -0.336544 0.762152 2.024061 -3.111061 0.350166 1.020572 -3.008378 1.720495 1.917246 -16.488180 4.567676 1.485382 13.237984 1.357180 1.234960 6.732060 0.000000 0.000000 0.000000 2.859809 3.975696 -36.116433 16.645101 -26.383560 3.930458 34.203373 4.157012 -53.212703 0.000000 0.000000 0.000000 -7.125000 0.000000 0.000000 -70.548087 85.012984 65.762142 0.000000 0.000000 0.000000 -5.762465 2.213435 20.797108 -11.014101 -18.307628 -1.782189 -17.234615 1.287408 -18.579266 0.000000 0.000000 0.000000 7.125000 0.000000 0.000000 7.107647 10.707189 5.708615
3.227170 17.428830 -3.798072 -41.904486 86.568973 -36.458612 0.000000 0.000000 0.000000 -15.120589 -25.681398 -5.460492 2.322275 9.507436 27.395925 0.541483 18.095866 -29.746045 1.197847 -6.944324 -19.550511 0.000000 0.000000 0.000000 20.615262 23.236952 -2.451191 -1.224545 -7.018553 19.770247 1.782331 -26.144165 -23.898788 -0.331339 3.699629 -10.233121 0.512380 1.433477 -0.350377 0.755200 1.981551 -3.174957 0.441355 1.004219 -3.072150 1.777473 1.951279 -16.591027 4.364982 1.535564 13.531086 1.292811 1.249745 6.845240 0.000000 0.000000 0.000000 2.415809 3.938217 -38.099760 18.680395 -29.015573 4.876831 33.435408 2.259627 -53.111164 0.000000 0.000000 0.000000 -7.125000 0.000000 0.000000 -68.245717 84.673704 63.196330 0.000000 0.000000 0.000000 -5.963080 1.923779 25.538725 -12.626653 -20.735279 -2.321099 -17.357201 -1.248906 -19.196549 0.000000 0.000000 0.000000 7.125000 0.000000 0.000000 7.056037 10.058840 5.760202
3.219825 17.417699 -3.807814 -38.358096 86.355580 -33.017292 0.000000 0.000000 0.000000 -15.306550 -25.581140 -5.184274 2.301940 9.468587 27.272534 0.500827 18.411183 -29.836894 1.229632 -7.031856 -19.810036 0.000000 0.000000 0.000000 20.590342 23.554382 -2.435761 -1.259706 -7.114874 20.056235 1.747903 -26.080297 -24.105884 -0.316340 3.615288 -9.996813 0.395470 1.445022 -0.349043 0.742833 1.994936 -3.185348 0.493447 1.013809 -3.087199 1.894308 2.035113 -16.578110 4.095462 1.659676 13.692300 1.201371 1.292964 6.896302 0.000000 0.000000 0.000000 2.154604 3.848073 -40.085203 20.753021 -31.535418 5.921851 32.697151 1.105663 -52.959211 0.000000 0.000000 0.000000 -7.125000 0.000000 0.000000 -65.773421 84.334161 60.481955 0.000000 0.000000 0.000000 -6.218817 1.510305 29.419933 -14.321566 -23.190425 -2.954927 -17.585987 -3.011799 -19.604994 0.000000 0.000000 0.000000 7.125000 0.000000 0.000000 6.928170 9.611099 5.717187
3.213135 17.410932 -3.816946 -35.500168 86.159487 -30.297736 0.000000 0.000000 0.000000 -15.461764 -25.274462 -5.019930 2.287899 9.441645 27.186786 0.442162 18.653252 -29.720930 1.353871 -7.365510 -20.802955 0.000000 0.000000 0.000000 20.583331 23.812355 -2.381688 -1.289799 -7.196037 20.297516 1.776043 -26.163644 -24.016286 -0.373742 3.925617 -10.867527 0.257019 1.422650 -0.313361 0.755383 1.964261 -3.218282 0.582846 1.002548 -3.146185 1.919005 2.097973 -16.593031 3.960176 1.752500 13.964808 1.167057 1.331382 6.987260 0.000000 0.000000 0.000000 2.066377 3.824848 -42.033943 22.800149 -33.867602 7.027480 32.965299 1.193654 -52.496324 0.000000 0.000000 0.000000 -7.125000 0.000000 0.000000 -61.339863 84.386902 56.282396 0.000000 0.000000 0.000000 -6.641574 1.062113 32.740379 -15.934982 -25.431220 -3.618683 -17.860415 -4.465653 -19.508418 0.000000 0.000000 0.000000 7.125000 0.000000 0.000000 6.745636 9.676067 5.555560
3.207065 17.409126 -3.826488 -34.588948 86.032317 -29.441897 0.000000 0.000000 0.000000 -15.555586 -25.476404 -4.826070 2.285891 9.437781 27.174742 0.416954 18.950248 -29.906518 1.362430 -7.388007 -20.869943 0.000000 0.000000 0.000000 20.590617 23.944727 -2.348009 -1.296619 -7.214354 20.351864 1.759410 -26.131090 -24.111540 -0.375585 3.935970 -10.896635 0.231122 1.378759 -0.339786 0.760809 1.906586 -3.257407 0.604497 0.974923 -3.172195 1.906315 2.122590 -16.555513 3.889794 1.797979 14.112777 1.152484 1.348324 7.028675 0.000000 0.000000 0.000000 2.234905 3.832733 -43.970225 24.745996 -35.942992 8.140435 32.919627 1.565792 -52.606062 0.000000 0.000000 0.000000 -7.125000 0.000000 0.000000 -62.411061 84.385818 57.304921 0.000000 0.000000 0.000000 -6.873884 0.458383 34.621592 -17.248016 -27.183540 -4.200094 -18.025987 -5.611884 -19.534931 0.000000 0.000000 0.000000 7.125000 0.000000 0.000000 6.640059 9.627813 5.473836
3.197659 17.411302 -3.841751 -31.576352 85.748647 -26.426534 0.000000 0.000000 0.000000 -15.813234 -26.071261 -4.470557 2.287060 9.440102 27.181849 0.440001 19.455942 -30.677790 1.163313 -6.846317 -19.261147 0.000000 0.000000 0.000000 20.487431 24.270580 -2.313422 -1.290296 -7.197547 20.302040 1.773049 -26.125351 -23.951165 -0.366293 3.887634 -10.760817 0.294164 1.455956 -0.359630 0.689365 2.011636 -3.367205 0.491996 1.025469 -3.270860 1.830308 2.111401 -16.317881 3.890936 1.808895 14.172683 1.163602 1.349237 7.006436 0.000000 0.000000 0.000000 2.504496 3.847077 -45.553830 26.170754 -37.376531 8.991283 32.726534 1.894235 -52.404822 0.000000 0.000000 0.000000 -7.125000 0.000000 0.000000 -60.286474 84.259651 55.160457 0.000000 0.000000 0.000000 -6.881368 -0.015228 35.311514 -18.181276 -28.388488 -4.635187 -18.210990 -6.553871 -19.781601 0.000000 0.000000 0.000000 7.125000 0.000000 0.000000 6.534194 9.350013 5.422051
